2700 0 1 0           
15 SolidWorks 2022 14 ACIS 27.0.2 NT 24 Mon Apr 20 01:10:57 2026 
1 9.9999999999999995e-07 1e-10 
T @52 G8SUB_TGKK7KZ_ZWMKC4ZJ6GN994GCQCBA_4QGP7FBSWMPQHBDS4 
-0 body $1 -1 -1 $-1 0 $2 $-1 $-1 F #
-1 name_attrib-gen-attrib $-1 -1 $-1 $-1 $0 2 1 1 1 1 1 1 1 1 1 1 1 1 1 0 1 1 1 @15 Nuclear reactor #
-2 lump $3 -1 -1 $-1 $-1 $4 $0 F #
-3 rgb_color-st-attrib $-1 -1 $-1 $-1 $2 2 1 2 1 1 1 1 1 1 1 1 1 1 1 0 1 1 1 0.792156862745098 0.81960784313725488 0.93333333333333335 #
-4 shell $-1 -1 -1 $-1 $-1 $-1 $5 $-1 $2 F #
-5 face $6 -1 -1 $-1 $7 $8 $4 $-1 $9 reversed single F F #
-6 integer_attrib-name_attrib-gen-attrib $-1 -1 $-1 $-1 $5 2 1 2 1 1 1 1 1 1 1 1 1 1 1 0 1 1 1 @8 Revolve6 0 #
-7 face $10 -1 -1 $-1 $11 $12 $4 $-1 $13 forward single F F #
-8 loop $-1 -1 -1 $-1 $-1 $14 $5 F unknown #
-9 sphere-surface $-1 -1 -1 $-1 8.5977231501097867e-14 500 -3.0018789935147921e-28 175.00000000000006 1 0 0 0 0 1 forward_v I I I I #
-10 integer_attrib-name_attrib-gen-attrib $-1 -1 $-1 $-1 $7 2 1 2 1 1 1 1 1 1 1 1 1 1 1 0 1 1 1 @8 Revolve6 0 #
-11 face $15 -1 -1 $-1 $16 $17 $4 $-1 $18 reversed single F F #
-12 loop $-1 -1 -1 $-1 $-1 $19 $7 F unknown #
-13 sphere-surface $-1 -1 -1 $-1 8.5977231501097867e-14 500 -3.0018789935147921e-28 196.87500000000003 1 0 0 0 0 1 forward_v I I I I #
-14 coedge $-1 -1 -1 $-1 $20 $21 $22 $23 reversed $8 $-1 #
-15 integer_attrib-name_attrib-gen-attrib $-1 -1 $-1 $-1 $11 2 1 2 1 1 1 1 1 1 1 1 1 1 1 0 1 1 1 @8 Revolve6 0 #
-16 face $24 -1 -1 $-1 $25 $26 $4 $-1 $27 forward single F T 4.6177967403272868 4.7641382037419211 -3.1415926535898002 0 #
-17 loop $-1 -1 -1 $-1 $-1 $28 $11 F unknown #
-18 plane-surface $-1 -1 -1 $-1 3.0764009365215693e-14 -61.875 -7.8162271445758888e-29 4.1678110840288906e-17 1 0 -1000 4.1678110840288904e-14 0 forward_v I I I I #
-19 coedge $-1 -1 -1 $-1 $29 $30 $31 $32 reversed $12 $-1 #
-20 coedge $-1 -1 -1 $-1 $21 $14 $33 $34 reversed $8 $-1 #
-21 coedge $-1 -1 -1 $-1 $14 $20 $35 $36 reversed $8 $-1 #
-22 coedge $-1 -1 -1 $-1 $35 $37 $14 $23 forward $38 $-1 #
-23 edge $-1 -1 -1 $-1 $39 1.5707963267949037 $40 3.1415926535897931 $22 $41 forward @7 unknown F #
-24 integer_attrib-name_attrib-gen-attrib $-1 -1 $-1 $-1 $16 2 1 2 1 1 1 1 1 1 1 1 1 1 1 0 1 1 1 @8 Revolve6 0 #
-25 face $42 -1 -1 $-1 $43 $44 $4 $-1 $45 forward single F T -4.3382963968582682e-18 0.065425108487408318 -3.1415926535898002 0 #
-26 loop $-1 -1 -1 $-1 $-1 $46 $16 F unknown #
-27 cone-surface $-1 -1 -1 $-1 6.0275584645533799e-14 914.77333176709408 0 -4.1678110840288906e-17 -1 0 205.00000000000006 0 0 1 I I 0 1 205.00000000000006 forward I I I I #
-28 coedge $-1 -1 -1 $-1 $47 $47 $48 $49 forward $17 $-1 #
-29 coedge $-1 -1 -1 $-1 $30 $19 $50 $51 forward $12 $-1 #
-30 coedge $-1 -1 -1 $-1 $19 $29 $52 $53 reversed $12 $-1 #
-31 coedge $-1 -1 -1 $-1 $52 $54 $19 $32 forward $55 $-1 #
-32 edge $-1 -1 -1 $-1 $56 1.5707963267948895 $57 3.1415926535897931 $31 $58 forward @7 unknown F #
-33 coedge $-1 -1 -1 $-1 $59 $60 $20 $34 forward $61 $-1 #
-34 edge $-1 -1 -1 $-1 $62 0 $39 3.1415926535897931 $33 $63 forward @7 unknown F #
-35 coedge $-1 -1 -1 $-1 $64 $22 $21 $36 forward $38 $-1 #
-36 edge $-1 -1 -1 $-1 $40 3.1415926535897931 $62 4.7123889803846968 $35 $65 forward @7 unknown F #
-37 coedge $-1 -1 -1 $-1 $22 $66 $59 $67 reversed $38 $-1 #
-38 loop $-1 -1 -1 $-1 $-1 $22 $68 F unknown #
-39 vertex $-1 -1 -1 $-1 $67 $69 #
-40 vertex $-1 -1 -1 $-1 $36 $70 #
-41 ellipse-curve $-1 -1 -1 $-1 8.5977231501097867e-14 500 -3.0018789935147921e-28 0 1 -0 -0 0 175.00000000000006 1 I I #
-42 integer_attrib-name_attrib-gen-attrib $-1 -1 $-1 $-1 $25 2 1 2 1 1 1 1 1 1 1 1 1 1 1 0 1 1 1 @8 Revolve6 0 #
-43 face $71 -1 -1 $-1 $72 $73 $4 $-1 $74 forward single F T -2.6138410063300186 4.850758583327144e-17 -3.1415926535898002 0 #
-44 loop $-1 -1 -1 $-1 $-1 $75 $25 F unknown #
-45 cone-surface $-1 -1 -1 $-1 2.1237851655773162e-14 -21.874999999999979 0 -4.1678110840288906e-17 -1 0 196.88094478087291 -6.9388939039072284e-15 0 1 I I 0.63031458851203992 0.77633982218413733 196.88094478087291 forward I I I I #
-46 coedge $-1 -1 -1 $-1 $76 $77 $78 $79 forward $26 $-1 #
-47 coedge $-1 -1 -1 $-1 $28 $28 $80 $81 reversed $17 $-1 #
-48 coedge $-1 -1 -1 $-1 $77 $76 $28 $49 reversed $26 $-1 #
-49 edge $-1 -1 -1 $-1 $82 -3.1415926535898002 $83 0 $28 $84 forward @7 unknown F #
-50 coedge $-1 -1 -1 $-1 $85 $86 $29 $51 reversed $87 $-1 #
-51 edge $-1 -1 -1 $-1 $56 0 $88 3.1415926535897931 $29 $89 forward @7 unknown F #
-52 coedge $-1 -1 -1 $-1 $90 $31 $30 $53 forward $55 $-1 #
-53 edge $-1 -1 -1 $-1 $57 3.1415926535897931 $88 4.7123889803846826 $52 $91 forward @7 unknown F #
-54 coedge $-1 -1 -1 $-1 $31 $92 $85 $93 forward $55 $-1 #
-55 loop $-1 -1 -1 $-1 $-1 $31 $72 F unknown #
-56 vertex $-1 -1 -1 $-1 $51 $94 #
-57 vertex $-1 -1 -1 $-1 $53 $95 #
-58 ellipse-curve $-1 -1 -1 $-1 8.5977231501097867e-14 500 -3.0018789935147921e-28 -0 -1 0 -0 0 196.87500000000003 1 I I #
-59 coedge $-1 -1 -1 $-1 $96 $33 $37 $67 forward $61 $-1 #
-60 coedge $-1 -1 -1 $-1 $33 $97 $64 $98 forward $61 $-1 #
-61 loop $-1 -1 -1 $-1 $87 $96 $99 F unknown #
-62 vertex $-1 -1 -1 $-1 $34 $100 #
-63 ellipse-curve $-1 -1 -1 $-1 8.5977231501097867e-14 500 -3.0018789935147921e-28 -6.9829626776862667e-15 2.9103669247420884e-31 -1 -175.00000000000006 0 1.2220184685950971e-12 1 I I #
-64 coedge $-1 -1 -1 $-1 $66 $35 $60 $98 reversed $38 $-1 #
-65 ellipse-curve $-1 -1 -1 $-1 8.5977231501097867e-14 500 -3.0018789935147921e-28 0 1 -0 -0 0 175.00000000000006 1 I I #
-66 coedge $-1 -1 -1 $-1 $37 $64 $101 $102 forward $38 $-1 #
-67 edge $-1 -1 -1 $-1 $39 3.1415926535897931 $103 3.1807288742838393 $59 $63 forward @7 unknown F #
-68 face $104 -1 -1 $-1 $105 $38 $4 $-1 $9 reversed single F F #
-69 point $-1 -1 -1 $-1 175.00000000000014 500 -1.2220184685950973e-12 #
-70 point $-1 -1 -1 $-1 8.5977231501097867e-14 500 -175.00000000000006 #
-71 integer_attrib-name_attrib-gen-attrib $-1 -1 $-1 $-1 $43 2 1 2 1 1 1 1 1 1 1 1 1 1 1 0 1 1 1 @8 Revolve6 0 #
-72 face $106 -1 -1 $-1 $68 $55 $4 $-1 $13 forward single F F #
-73 loop $-1 -1 -1 $-1 $-1 $107 $43 F unknown #
-74 cone-surface $-1 -1 -1 $-1 2.1237851655773162e-14 -21.874999999999979 0 -4.1678110840288906e-17 -1 0 196.88094478087291 -6.9388939039072284e-15 0 1 I I 0.0002717244843461257 0.99999996308290162 196.88094478087291 forward I I I I #
-75 coedge $-1 -1 -1 $-1 $108 $109 $110 $111 forward $44 $-1 #
-76 coedge $-1 -1 -1 $-1 $48 $46 $112 $113 forward $26 $-1 #
-77 coedge $-1 -1 -1 $-1 $46 $48 $114 $115 reversed $26 $-1 #
-78 coedge $-1 -1 -1 $-1 $109 $108 $46 $79 reversed $44 $-1 #
-79 edge $-1 -1 -1 $-1 $116 -3.1415926535898002 $117 0 $46 $118 forward @7 unknown F #
-80 coedge $-1 -1 -1 $-1 $112 $114 $47 $81 forward $87 $-1 #
-81 edge $-1 -1 -1 $-1 $82 1 $83 0 $80 $119 forward @7 unknown F #
-82 vertex $-1 -1 -1 $-1 $49 $120 #
-83 vertex $-1 -1 -1 $-1 $81 $121 #
-84 ellipse-curve $-1 -1 -1 $-1 1.9570727222161606e-14 -61.875000000000014 0 -4.1678110840288906e-17 -1 0 205.00000000000006 -6.9388939039072284e-15 0 1 I I #
-85 coedge $-1 -1 -1 $-1 $122 $50 $54 $93 reversed $87 $-1 #
-86 coedge $-1 -1 -1 $-1 $50 $123 $90 $124 reversed $87 $-1 #
-87 loop $-1 -1 -1 $-1 $-1 $80 $99 F unknown #
-88 vertex $-1 -1 -1 $-1 $124 $125 #
-89 ellipse-curve $-1 -1 -1 $-1 8.5977231501097867e-14 500 -3.0018789935147921e-28 -6.9829626776862667e-15 2.9103669247420884e-31 -1 -196.87500000000003 0 1.374770777169484e-12 1 I I #
-90 coedge $-1 -1 -1 $-1 $92 $52 $86 $124 forward $55 $-1 #
-91 ellipse-curve $-1 -1 -1 $-1 8.5977231501097867e-14 500 -3.0018789935147921e-28 -0 -1 0 -0 0 196.87500000000003 1 I I #
-92 coedge $-1 -1 -1 $-1 $54 $90 $107 $126 reversed $55 $-1 #
-93 edge $-1 -1 -1 $-1 $127 -0.03688217537432345 $56 0 $54 $89 forward @7 unknown F #
-94 point $-1 -1 -1 $-1 -196.87499999999994 500 1.3747707771694838e-12 #
-95 point $-1 -1 -1 $-1 8.5977231501097867e-14 500 -196.87500000000003 #
-96 coedge $-1 -1 -1 $-1 $128 $59 $129 $130 reversed $61 $-1 #
-97 coedge $-1 -1 -1 $-1 $60 $128 $131 $132 forward $61 $-1 #
-98 edge $-1 -1 -1 $-1 $133 -0.039136220694045834 $62 0 $60 $63 forward @7 unknown F #
-99 face $134 -1 -1 $-1 $-1 $61 $4 $-1 $135 reversed single F F #
-100 point $-1 -1 -1 $-1 -174.99999999999997 500 1.2220184685950969e-12 #
-101 coedge $-1 -1 -1 $-1 $131 $129 $66 $102 reversed $136 $-1 #
-102 edge $-1 -1 -1 $-1 $133 -3.1415926535898002 $103 0 $66 $137 forward @7 unknown T -174.86599827499185 493.15290957482387 -174.86599827499188 174.86599827499194 493.15290957482387 1.2210827395506196e-12 #
-103 vertex $-1 -1 -1 $-1 $67 $138 #
-104 integer_attrib-name_attrib-gen-attrib $-1 -1 $-1 $-1 $68 2 1 2 1 1 1 1 1 1 1 1 1 1 1 0 1 1 1 @8 Revolve6 0 #
-105 face $139 -1 -1 $-1 $140 $136 $4 $-1 $141 reversed single F T -2.8180167301749024 4.4130710509774745e-20 -3.1415926535898002 0 #
-106 integer_attrib-name_attrib-gen-attrib $-1 -1 $-1 $-1 $72 2 1 2 1 1 1 1 1 1 1 1 1 1 1 0 1 1 1 @8 Revolve6 0 #
-107 coedge $-1 -1 -1 $-1 $142 $143 $92 $126 forward $73 $-1 #
-108 coedge $-1 -1 -1 $-1 $78 $75 $144 $145 forward $44 $-1 #
-109 coedge $-1 -1 -1 $-1 $75 $78 $146 $147 reversed $44 $-1 #
-110 coedge $-1 -1 -1 $-1 $143 $142 $75 $111 reversed $73 $-1 #
-111 edge $-1 -1 -1 $-1 $148 -3.1415926535898002 $149 0 $75 $150 forward @7 unknown F #
-112 coedge $-1 -1 -1 $-1 $144 $80 $76 $113 reversed $87 $-1 #
-113 edge $-1 -1 -1 $-1 $117 0.031874999999999987 $83 0.061874999999999986 $76 $151 forward @7 unknown F #
-114 coedge $-1 -1 -1 $-1 $80 $146 $77 $115 forward $87 $-1 #
-115 edge $-1 -1 -1 $-1 $116 0.031874999999999987 $82 0.061874999999999986 $114 $152 forward @7 unknown F #
-116 vertex $-1 -1 -1 $-1 $79 $153 #
-117 vertex $-1 -1 -1 $-1 $79 $154 #
-118 ellipse-curve $-1 -1 -1 $-1 2.0821070547370273e-14 -31.874999999999986 0 -4.1678110840288906e-17 -1 0 205.00000000000009 -6.9388939039072284e-15 0 1 I I #
-119 straight-curve $-1 -1 -1 $-1 3.0764009365215693e-14 -61.875000000000014 -7.8162271445758888e-29 1000 -2.1874927346413352e-13 -6.9829626776862665e-12 I I #
-120 point $-1 -1 -1 $-1 -205.00000000000006 -61.874999999999972 1.4315073489256852e-12 #
-121 point $-1 -1 -1 $-1 205.00000000000009 -61.874999999999986 0 #
-122 coedge $-1 -1 -1 $-1 $146 $85 $143 $155 reversed $87 $-1 #
-123 coedge $-1 -1 -1 $-1 $86 $144 $142 $156 forward $87 $-1 #
-124 edge $-1 -1 -1 $-1 $88 3.1415926535897931 $157 3.1784748289641165 $90 $89 forward @7 unknown F #
-125 point $-1 -1 -1 $-1 196.87500000000011 500 -1.3747707771694842e-12 #
-126 edge $-1 -1 -1 $-1 $127 -3.1415926535898002 $157 0 $107 $158 forward @7 unknown T -196.74111115307656 492.7404678351312 -196.74111115307659 196.74111115307664 492.7404678351312 1.3738358363484591e-12 #
-127 vertex $-1 -1 -1 $-1 $126 $159 #
-128 coedge $-1 -1 -1 $-1 $97 $96 $160 $161 forward $61 $-1 #
-129 coedge $-1 -1 -1 $-1 $101 $162 $96 $130 forward $136 $-1 #
-130 edge $-1 -1 -1 $-1 $163 -4.7551784760572395e-05 $103 0.49310537599583831 $129 $164 forward @7 unknown F #
-131 coedge $-1 -1 -1 $-1 $162 $101 $97 $132 reversed $136 $-1 #
-132 edge $-1 -1 -1 $-1 $165 -4.7551784760572395e-05 $133 0.49310537599583826 $97 $166 forward @7 unknown F #
-133 vertex $-1 -1 -1 $-1 $102 $167 #
-134 integer_attrib-name_attrib-gen-attrib $-1 -1 $-1 $-1 $99 2 1 2 1 1 1 1 1 1 1 1 1 1 1 0 1 1 1 @8 Revolve6 0 #
-135 plane-surface $-1 -1 -1 $-1 0 0 0 -6.9829626776862667e-15 2.9103669247420884e-31 -1 -1000 8.3356221680577809e-14 6.9829626776862665e-12 forward_v I I I I #
-136 loop $-1 -1 -1 $-1 $-1 $162 $105 F unknown #
-137 ellipse-curve $-1 -1 -1 $-1 4.2703241956874963e-14 493.15290957482387 0 -4.1678110840288906e-17 -1 0 174.86599827499188 0 0 1 I I #
-138 point $-1 -1 -1 $-1 174.86599827499194 493.15290957482387 0 #
-139 integer_attrib-name_attrib-gen-attrib $-1 -1 $-1 $-1 $105 2 1 2 1 1 1 1 1 1 1 1 1 1 1 0 1 1 1 @8 Revolve6 0 #
-140 face $168 -1 -1 $-1 $99 $169 $4 $-1 $170 reversed single F F #
-141 cone-surface $-1 -1 -1 $-1 2.2149560330404478e-14 0 0 -4.1678110840288906e-17 -1 0 174.99999999999682 -7.2936693970504256e-15 0 1 I I 0.00027172448434601717 0.99999996308290162 174.99999999999682 forward I I I I #
-142 coedge $-1 -1 -1 $-1 $110 $107 $123 $156 reversed $73 $-1 #
-143 coedge $-1 -1 -1 $-1 $107 $110 $122 $155 forward $73 $-1 #
-144 coedge $-1 -1 -1 $-1 $123 $112 $108 $145 reversed $87 $-1 #
-145 edge $-1 -1 -1 $-1 $149 0.14107936530569548 $117 0.15396032247708752 $108 $171 forward @7 unknown F #
-146 coedge $-1 -1 -1 $-1 $114 $122 $109 $147 forward $87 $-1 #
-147 edge $-1 -1 -1 $-1 $148 0.14107936530569548 $116 0.15396032247708749 $146 $172 forward @7 unknown F #
-148 vertex $-1 -1 -1 $-1 $111 $173 #
-149 vertex $-1 -1 -1 $-1 $111 $174 #
-150 ellipse-curve $-1 -1 -1 $-1 2.1237851655773162e-14 -21.874999999999979 0 -4.1678110840288906e-17 -1 0 196.88094478087291 -6.9388939039072284e-15 0 1 I I #
-151 straight-curve $-1 -1 -1 $-1 205.00000000000009 0 0 0 -1000 0 I I #
-152 straight-curve $-1 -1 -1 $-1 -205.00000000000006 1.7088025444518461e-14 1.4315073489256852e-12 -8.3356221680577809e-14 -1000 2.9103669247420883e-28 I I #
-153 point $-1 -1 -1 $-1 -205.00000000000006 -31.874999999999972 1.4315073489256854e-12 #
-154 point $-1 -1 -1 $-1 205.00000000000011 -31.874999999999986 0 #
-155 edge $-1 -1 -1 $-1 $148 -0.021928496565636633 $127 0.49268699026760499 $143 $175 forward @7 unknown F #
-156 edge $-1 -1 -1 $-1 $149 -0.021928496565636633 $157 0.49268699026760499 $123 $176 forward @7 unknown F #
-157 vertex $-1 -1 -1 $-1 $124 $177 #
-158 ellipse-curve $-1 -1 -1 $-1 4.2686052164332888e-14 492.7404678351312 0 -4.1678110840288906e-17 -1 0 196.74111115307659 0 0 1 I I #
-159 point $-1 -1 -1 $-1 -196.74111115307656 492.7404678351312 1.3738358363484591e-12 #
-160 coedge $-1 -1 -1 $-1 $178 $178 $128 $161 reversed $169 $-1 #
-161 edge $-1 -1 -1 $-1 $163 1 $165 0 $128 $179 forward @7 unknown F #
-162 coedge $-1 -1 -1 $-1 $129 $131 $178 $180 forward $136 $-1 #
-163 vertex $-1 -1 -1 $-1 $161 $181 #
-164 straight-curve $-1 -1 -1 $-1 174.99998707901267 0.047551783005097652 0 -0.27172448434612811 999.99996308290179 0 I I #
-165 vertex $-1 -1 -1 $-1 $180 $182 #
-166 straight-curve $-1 -1 -1 $-1 -174.99998707901261 0.047551783005112237 1.2220183783683242e-12 0.27172448434621149 999.99996308290179 -1.89744193280285e-15 I I #
-167 point $-1 -1 -1 $-1 -174.86599827499185 493.15290957482387 1.2210827395506196e-12 #
-168 integer_attrib-name_attrib-gen-attrib $-1 -1 $-1 $-1 $140 2 1 2 1 1 1 1 1 1 1 1 1 1 1 0 1 1 1 @8 Revolve6 0 #
-169 loop $-1 -1 -1 $-1 $-1 $160 $140 F unknown #
-170 plane-surface $-1 -1 -1 $-1 0 0 0 -4.1678110840288906e-17 -1 0 1000 -4.1678110840288904e-14 0 forward_v I I I I #
-171 straight-curve $-1 -1 -1 $-1 107.95656269067381 87.65052937527463 0 630.31458851203934 -776.33982218413769 0 I I #
-172 straight-curve $-1 -1 -1 $-1 -107.95656269067375 87.650529375274644 7.538566480802727e-13 -630.31458851203945 -776.33982218413769 4.4014632467807475e-12 I I #
-173 point $-1 -1 -1 $-1 -196.88094478087288 -21.874999999999982 1.3748122893524463e-12 #
-174 point $-1 -1 -1 $-1 196.88094478087294 -21.875 0 #
-175 straight-curve $-1 -1 -1 $-1 -196.87498627145106 0.053495756100193699 1.3747706813035391e-12 0.27172448434625263 999.99996308290179 -1.8974419328031371e-15 I I #
-176 straight-curve $-1 -1 -1 $-1 196.87498627145112 0.053495756100177289 0 -0.27172448434616925 999.99996308290179 0 I I #
-177 point $-1 -1 -1 $-1 196.74111115307664 492.7404678351312 0 #
-178 coedge $-1 -1 -1 $-1 $160 $160 $162 $180 reversed $169 $-1 #
-179 straight-curve $-1 -1 -1 $-1 0 0 0 -1000 7.8500259395222877e-14 6.9829626776862665e-12 I I #
-180 edge $-1 -1 -1 $-1 $165 -3.1415926535898002 $163 0 $162 $183 forward @7 unknown F #
-181 point $-1 -1 -1 $-1 174.99999999999685 -8.4979339993709784e-16 0 #
-182 point $-1 -1 -1 $-1 -174.99999999999679 1.3737545394163756e-14 1.2220184685950747e-12 #
-183 ellipse-curve $-1 -1 -1 $-1 0 0 0 -4.1678110840288906e-17 -1 0 174.99999999999682 -7.2936693970504256e-15 0 1 I I #
End-of-ACIS-data 